<svg width="1209" height="987" xmlns="http://www.w3.org/2000/svg" xmlns:xlink="http://www.w3.org/1999/xlink" xmlns:svgjs="http://svgjs.com/svgjs" viewBox="1151 0 1209 987"><svg width="1208" height="904" xmlns="http://www.w3.org/2000/svg" xmlns:xlink="http://www.w3.org/1999/xlink" xmlns:svgjs="http://svgjs.com/svgjs" viewBox="0 0.146 1208.001 903.708" fill="#ff4013" x="1151"><svg xmlns="http://www.w3.org/2000/svg" xmlns:xlink="http://www.w3.org/1999/xlink" width="1208" height="904" viewBox="0.161 223 1207.58 903.394"><path paint-order="stroke fill markers" fill-rule="evenodd" d="M109.851 256.725A605.227 605.227 0 0 0 .551 582.839a600.605 600.605 0 0 0 91.398 340.744 599.697 599.697 0 0 0 164.721 174.043c13.276 9.309 29.452 20.594 43.358 28.768l-2.867-2.936c-27.459-27.934-52.341-59.245-73.958-93.84-100.878-161.438-107.034-355.197-33.54-516.337a568.22 568.22 0 0 1 5.917-12.545C250.936 284.429 467.148 223 688.134 223h20.453c173.921 0 341.39 69.23 440.6 228 24.678 39.492 43.677 80.922 57.241 123.333l1.314 4.213C1198.949 393.416 1104.016 223 950.784 223H624.672c-203.891 0-397.623 0-514.821 33.725z"/></svg></svg><svg width="1069" height="987" xmlns="http://www.w3.org/2000/svg" xmlns:xlink="http://www.w3.org/1999/xlink" xmlns:svgjs="http://svgjs.com/svgjs" viewBox="0 0.076 1068.995 986.848" fill="#bc2b09" x="1291"><svg xmlns="http://www.w3.org/2000/svg" width="1069" height="987" viewBox="0.194 29 1068.14 986.054"><path paint-order="stroke fill markers" fill-rule="evenodd" d="M875.29 496.356C826.734 721.873 606.754 868.738 380.364 822.06 152.749 775.131 4.896 550.358 51.828 322.744c1.157-5.38 2.401-10.72 3.752-16.007a553.172 553.172 0 0 0-5.915 12.546c-73.497 161.138-67.34 354.9 33.539 516.338 21.706 34.737 46.701 66.16 74.293 94.18.849.86 1.68 1.74 2.531 2.594 86.142 50.301 183.591 78.738 283.8 82.274 203.89 7.283 397.62-89.084 514.818-256.085a605.204 605.204 0 0 0 109.301-326.113 600.476 600.476 0 0 0-.205-47.924c-.41-1.324-.813-2.644-1.234-3.965-13.57-42.496-32.594-84.01-57.32-123.58C909.978 98.232 742.508 29 568.587 29h-15.419C777.895 49.51 921.874 270.429 875.29 496.356z"/></svg></svg></svg>