<svg width="72" height="29" xmlns="http://www.w3.org/2000/svg" xmlns:xlink="http://www.w3.org/1999/xlink" xmlns:svgjs="http://svgjs.com/svgjs" viewBox="17 10 72 29"><svg width="72" height="18" xmlns="http://www.w3.org/2000/svg" xmlns:xlink="http://www.w3.org/1999/xlink" xmlns:svgjs="http://svgjs.com/svgjs" viewBox="17 14 72 18" x="17" y="14"><svg width="15" height="18" xmlns="http://www.w3.org/2000/svg" xmlns:xlink="http://www.w3.org/1999/xlink" xmlns:svgjs="http://svgjs.com/svgjs" fill="#ff4013" x="17" y="14"><svg xmlns="http://www.w3.org/2000/svg" xmlns:xlink="http://www.w3.org/1999/xlink" width="15" height="18"><path paint-order="stroke fill markers" fill-rule="evenodd" d="M3.946 13.486a6.047 6.047 0 0 1 8.247-8.846h2.541l-.078-.12A8.012 8.012 0 1 0 3.534 15.642a8.01 8.01 0 0 0 11.264-2.375h-2.376a6.048 6.048 0 0 1-8.476.219z"/></svg></svg><svg width="14" height="14" xmlns="http://www.w3.org/2000/svg" xmlns:xlink="http://www.w3.org/1999/xlink" xmlns:svgjs="http://svgjs.com/svgjs" fill="#ff4013" x="75" y="18"><svg xmlns="http://www.w3.org/2000/svg" xmlns:xlink="http://www.w3.org/1999/xlink" width="14" height="14"><path paint-order="stroke fill markers" fill-rule="evenodd" d="M12.77 4.345A6.245 6.245 0 1 0 1.26 9.194a6.245 6.245 0 0 0 11.51-4.85zm-5.758 6.76a4.348 4.348 0 1 1 0-8.697 4.348 4.348 0 0 1 0 8.697z"/></svg></svg><svg width="13" height="14" xmlns="http://www.w3.org/2000/svg" xmlns:xlink="http://www.w3.org/1999/xlink" xmlns:svgjs="http://svgjs.com/svgjs" fill="#ff4013" x="38" y="18"><svg xmlns="http://www.w3.org/2000/svg" xmlns:xlink="http://www.w3.org/1999/xlink" width="13" height="14"><path paint-order="stroke fill markers" fill-rule="evenodd" d="M6.599.538A6.005 6.005 0 0 0 .447 6.391v.39c0 3.65 2.636 6.264 6.59 6.264a6.153 6.153 0 0 0 4.84-1.989l-1.224-1.433a4.578 4.578 0 0 1-3.536 1.48c-2.428 0-4.162-1.433-4.439-3.59h9.938c.023-.21.046-.486.046-.672C12.658 3.085 10.136.538 6.6.538zm-3.93 5.388a3.952 3.952 0 0 1 7.86 0h-7.86z"/></svg></svg><svg width="7" height="13" xmlns="http://www.w3.org/2000/svg" xmlns:xlink="http://www.w3.org/1999/xlink" xmlns:svgjs="http://svgjs.com/svgjs" fill="#ff4013" x="32" y="18"><svg xmlns="http://www.w3.org/2000/svg" xmlns:xlink="http://www.w3.org/1999/xlink" width="7" height="13"><path paint-order="stroke fill markers" fill-rule="evenodd" d="M6.77.538c-2.15 0-3.674.74-4.46 2.174V.654H.182v12.252h2.22V6.803c0-2.682 1.479-4.138 3.86-4.138.17-.004.34.004.509.023V.538z"/></svg></svg><svg width="7" height="17" xmlns="http://www.w3.org/2000/svg" xmlns:xlink="http://www.w3.org/1999/xlink" xmlns:svgjs="http://svgjs.com/svgjs" fill="#ff4013" x="65" y="15"><svg xmlns="http://www.w3.org/2000/svg" xmlns:xlink="http://www.w3.org/1999/xlink" width="7" height="17"><path paint-order="stroke fill markers" fill-rule="evenodd" d="M4.8 14.172c-1.223 0-1.613-.74-1.613-2.056V5.48h3.515V3.657H3.186V.067H.966v3.59H.204v1.825h.762v6.727c0 2.473 1.106 3.836 3.58 3.836a3.383 3.383 0 0 0 2.377-.855l-.693-1.593a2.008 2.008 0 0 1-1.43.575z"/></svg></svg><svg width="3" height="13" xmlns="http://www.w3.org/2000/svg" xmlns:xlink="http://www.w3.org/1999/xlink" xmlns:svgjs="http://svgjs.com/svgjs" fill="#ff4013" x="72" y="18"><svg xmlns="http://www.w3.org/2000/svg" xmlns:xlink="http://www.w3.org/1999/xlink" width="3" height="13"><path paint-order="stroke fill markers" fill-rule="evenodd" d="M.74.652h2.22v12.251H.74V.653z"/></svg></svg><svg width="13" height="14" xmlns="http://www.w3.org/2000/svg" xmlns:xlink="http://www.w3.org/1999/xlink" xmlns:svgjs="http://svgjs.com/svgjs" fill="#ff4013" x="51" y="18"><svg xmlns="http://www.w3.org/2000/svg" xmlns:xlink="http://www.w3.org/1999/xlink" width="13" height="14"><path paint-order="stroke fill markers" fill-rule="evenodd" d="M10.992 2.36a6.245 6.245 0 1 0 0 8.829v1.717h1.916V.652h-1.916V2.36zm-4.417 8.743a4.348 4.348 0 1 1 0-8.696 4.348 4.348 0 0 1 0 8.696z"/></svg></svg></svg><svg width="17" height="7" xmlns="http://www.w3.org/2000/svg" xmlns:xlink="http://www.w3.org/1999/xlink" xmlns:svgjs="http://svgjs.com/svgjs" fill="#0d2e4e" x="62" y="10"><svg xmlns="http://www.w3.org/2000/svg" xmlns:xlink="http://www.w3.org/1999/xlink" width="17" height="7"><path paint-order="stroke fill markers" fill-rule="evenodd" d="M16.858 4.97L8.271 6.96 10.83 4.97.35 0l16.507 4.97z"/></svg></svg><svg width="17" height="5" xmlns="http://www.w3.org/2000/svg" xmlns:xlink="http://www.w3.org/1999/xlink" xmlns:svgjs="http://svgjs.com/svgjs" fill="#1a4580" x="62" y="10"><svg xmlns="http://www.w3.org/2000/svg" xmlns:xlink="http://www.w3.org/1999/xlink" width="17" height="5"><path paint-order="stroke fill markers" fill-rule="evenodd" d="M16.858 4.97h-6.03L.35 0l16.508 4.97z"/></svg></svg><svg width="57" height="6" xmlns="http://www.w3.org/2000/svg" xmlns:xlink="http://www.w3.org/1999/xlink" xmlns:svgjs="http://svgjs.com/svgjs" viewBox="32 33 57 6" x="32" y="33"><svg width="57" height="6" xmlns="http://www.w3.org/2000/svg" xmlns:xlink="http://www.w3.org/1999/xlink" xmlns:svgjs="http://svgjs.com/svgjs" viewBox="32 33 57 6" x="32" y="33"><svg width="2" height="6" xmlns="http://www.w3.org/2000/svg" xmlns:xlink="http://www.w3.org/1999/xlink" xmlns:svgjs="http://svgjs.com/svgjs" fill="#1a4580" x="32" y="33"><svg xmlns="http://www.w3.org/2000/svg" xmlns:xlink="http://www.w3.org/1999/xlink" width="2" height="6"><path paint-order="stroke fill markers" fill-rule="evenodd" d="M.585 5.074V2.52H.182v-.384h.403V1.88c-.02-.277.073-.55.256-.758a.858.858 0 0 1 .625-.226c.163-.005.327.019.482.07v.389a1.623 1.623 0 0 0-.423-.07c-.34 0-.512.207-.512.624v.24h.937v.374h-.937v2.552l-.428-.001z"/></svg></svg><svg width="4" height="4" xmlns="http://www.w3.org/2000/svg" xmlns:xlink="http://www.w3.org/1999/xlink" xmlns:svgjs="http://svgjs.com/svgjs" fill="#1a4580" x="34" y="35"><svg xmlns="http://www.w3.org/2000/svg" xmlns:xlink="http://www.w3.org/1999/xlink" width="4" height="4"><path paint-order="stroke fill markers" fill-rule="evenodd" d="M2.89 2.69a1.482 1.482 0 0 1-1.094.451 1.45 1.45 0 0 1-1.092-.448 1.543 1.543 0 1 1 2.185 0V2.69zm-1.094.06c.297.01.582-.11.781-.33a1.221 1.221 0 0 0-.01-1.626A1.02 1.02 0 0 0 1.785.46a.998.998 0 0 0-.781.332 1.17 1.17 0 0 0-.301.815c-.007.301.105.592.312.81.2.22.484.34.78.333z"/></svg></svg><svg width="2" height="4" xmlns="http://www.w3.org/2000/svg" xmlns:xlink="http://www.w3.org/1999/xlink" xmlns:svgjs="http://svgjs.com/svgjs" fill="#1a4580" x="38" y="35"><svg xmlns="http://www.w3.org/2000/svg" xmlns:xlink="http://www.w3.org/1999/xlink" width="2" height="4"><path paint-order="stroke fill markers" fill-rule="evenodd" d="M.123 3.074V.136H.56v.768C.665.66.831.45 1.044.294c.207-.15.46-.225.717-.211V.55h-.035C1.41.541 1.106.67.891.902a1.405 1.405 0 0 0-.33.996V3.07l-.438.005z"/></svg></svg><svg width="5" height="4" xmlns="http://www.w3.org/2000/svg" xmlns:xlink="http://www.w3.org/1999/xlink" xmlns:svgjs="http://svgjs.com/svgjs" fill="#1a4580" x="40" y="35"><svg xmlns="http://www.w3.org/2000/svg" xmlns:xlink="http://www.w3.org/1999/xlink" width="5" height="4"><path paint-order="stroke fill markers" fill-rule="evenodd" d="M.424 3.074V.136h.439V.63c.193-.344.555-.557.949-.558a.971.971 0 0 1 .937.586C2.962.29 3.358.067 3.784.073c.298-.017.59.097.798.312.205.24.31.55.293.865v1.82h-.439V1.351a.969.969 0 0 0-.201-.657.702.702 0 0 0-.559-.23.763.763 0 0 0-.58.244.936.936 0 0 0-.233.665v1.692h-.434V1.342A.956.956 0 0 0 2.226.7.691.691 0 0 0 1.67.467a.752.752 0 0 0-.585.26.967.967 0 0 0-.233.665V3.07l-.43.005z"/></svg></svg><svg width="4" height="4" xmlns="http://www.w3.org/2000/svg" xmlns:xlink="http://www.w3.org/1999/xlink" xmlns:svgjs="http://svgjs.com/svgjs" fill="#1a4580" x="45" y="35"><svg xmlns="http://www.w3.org/2000/svg" xmlns:xlink="http://www.w3.org/1999/xlink" width="4" height="4"><path paint-order="stroke fill markers" fill-rule="evenodd" d="M1.091 1.784c.018.273.14.528.339.714a1 1 0 0 0 .696.264c.354 0 .691-.151.928-.414l.271.243a1.56 1.56 0 0 1-1.21.552 1.406 1.406 0 0 1-1.043-.43A1.507 1.507 0 0 1 .65 1.608 1.56 1.56 0 0 1 1.052.515C1.306.225 1.674.062 2.06.07A1.24 1.24 0 0 1 3.06.513c.253.315.384.71.368 1.114v.156l-2.337.001zm0-.353h1.894a1.233 1.233 0 0 0-.281-.704.822.822 0 0 0-.657-.282.857.857 0 0 0-.642.282c-.181.193-.292.441-.314.704z"/></svg></svg><svg width="2" height="4" xmlns="http://www.w3.org/2000/svg" xmlns:xlink="http://www.w3.org/1999/xlink" xmlns:svgjs="http://svgjs.com/svgjs" fill="#1a4580" x="49" y="35"><svg xmlns="http://www.w3.org/2000/svg" xmlns:xlink="http://www.w3.org/1999/xlink" width="2" height="4"><path paint-order="stroke fill markers" fill-rule="evenodd" d="M.197 3.074V.136h.43v.768a1.49 1.49 0 0 1 .484-.61c.207-.15.46-.226.717-.211V.55h-.036c-.316-.01-.62.119-.835.351a1.405 1.405 0 0 0-.33.996V3.07l-.43.005z"/></svg></svg><svg width="1" height="6" xmlns="http://www.w3.org/2000/svg" xmlns:xlink="http://www.w3.org/1999/xlink" xmlns:svgjs="http://svgjs.com/svgjs" fill="#1a4580" x="51" y="33"><svg xmlns="http://www.w3.org/2000/svg" xmlns:xlink="http://www.w3.org/1999/xlink" width="1" height="6"><path paint-order="stroke fill markers" fill-rule="evenodd" d="M.538 5.074V.923H.97v4.15H.54z"/></svg></svg><svg width="4" height="4" xmlns="http://www.w3.org/2000/svg" xmlns:xlink="http://www.w3.org/1999/xlink" xmlns:svgjs="http://svgjs.com/svgjs" fill="#1a4580" x="52" y="35"><svg xmlns="http://www.w3.org/2000/svg" xmlns:xlink="http://www.w3.org/1999/xlink" width="4" height="4"><path paint-order="stroke fill markers" fill-rule="evenodd" d="M1.448 4a1.42 1.42 0 0 1-.625-.149l.149-.346a.981.981 0 0 0 .468.109.487.487 0 0 0 .336-.123c.117-.123.208-.27.266-.43L.698.136h.484l1.068 2.45.937-2.45h.468L2.422 3.169a1.67 1.67 0 0 1-.415.639.848.848 0 0 1-.56.192z"/></svg></svg><svg width="4" height="6" xmlns="http://www.w3.org/2000/svg" xmlns:xlink="http://www.w3.org/1999/xlink" xmlns:svgjs="http://svgjs.com/svgjs" fill="#1a4580" x="58" y="33"><svg xmlns="http://www.w3.org/2000/svg" xmlns:xlink="http://www.w3.org/1999/xlink" width="4" height="6"><path paint-order="stroke fill markers" fill-rule="evenodd" d="M1.62 5.136a1.313 1.313 0 0 1-1.128-.624v.563H.058V.925h.439v1.8c.233-.4.66-.647 1.122-.652a1.35 1.35 0 0 1 .984.417 1.68 1.68 0 0 1 0 2.226c-.256.27-.612.422-.984.42zm-.08-.392c.28.006.549-.107.74-.312.204-.227.31-.526.295-.832a1.139 1.139 0 0 0-.302-.821.974.974 0 0 0-.733-.312c-.283 0-.553.117-.745.324a1.209 1.209 0 0 0 0 1.635c.194.204.464.32.746.318H1.54z"/></svg></svg><svg width="4" height="4" xmlns="http://www.w3.org/2000/svg" xmlns:xlink="http://www.w3.org/1999/xlink" xmlns:svgjs="http://svgjs.com/svgjs" fill="#1a4580" x="61" y="35"><svg xmlns="http://www.w3.org/2000/svg" xmlns:xlink="http://www.w3.org/1999/xlink" width="4" height="4"><path paint-order="stroke fill markers" fill-rule="evenodd" d="M.832 3.983V.136h.441v.591c.236-.4.664-.65 1.13-.654.37-.001.726.15.983.419.56.635.56 1.589 0 2.224a1.34 1.34 0 0 1-.984.423 1.317 1.317 0 0 1-1.129-.624v1.474l-.441-.006zm1.481-1.238a.977.977 0 0 0 .739-.313 1.294 1.294 0 0 0 0-1.655.977.977 0 0 0-.734-.312 1.008 1.008 0 0 0-.745.325 1.205 1.205 0 0 0 0 1.633c.194.207.464.324.748.323l-.008-.001z"/></svg></svg><svg width="6" height="4" xmlns="http://www.w3.org/2000/svg" xmlns:xlink="http://www.w3.org/1999/xlink" xmlns:svgjs="http://svgjs.com/svgjs" fill="#1a4580" x="65" y="35"><svg xmlns="http://www.w3.org/2000/svg" xmlns:xlink="http://www.w3.org/1999/xlink" width="6" height="4"><path paint-order="stroke fill markers" fill-rule="evenodd" d="M.607 3.074V.136h.437V.63c.195-.342.557-.555.95-.558a.971.971 0 0 1 .937.586c.214-.368.61-.592 1.035-.586.299-.017.59.097.798.312.206.24.31.55.293.865v1.82H4.62V1.351a.97.97 0 0 0-.202-.657.702.702 0 0 0-.558-.23.763.763 0 0 0-.581.244.92.92 0 0 0-.228.676v1.692h-.436V1.342A.945.945 0 0 0 2.413.7a.692.692 0 0 0-.555-.232.75.75 0 0 0-.585.26.968.968 0 0 0-.234.665V3.07l-.432.005z"/></svg></svg><svg width="2" height="2" xmlns="http://www.w3.org/2000/svg" xmlns:xlink="http://www.w3.org/1999/xlink" xmlns:svgjs="http://svgjs.com/svgjs" fill="#1a4580" x="70" y="34"><svg xmlns="http://www.w3.org/2000/svg" xmlns:xlink="http://www.w3.org/1999/xlink" width="2" height="2"><path paint-order="stroke fill markers" fill-rule="evenodd" d="M.882 1.384l-.07-.2c.253-.094.38-.239.38-.437V.69H.988V.094h.522v.51a.801.801 0 0 1-.157.524.84.84 0 0 1-.471.256z"/></svg></svg><svg width="5" height="4" xmlns="http://www.w3.org/2000/svg" xmlns:xlink="http://www.w3.org/1999/xlink" xmlns:svgjs="http://svgjs.com/svgjs" fill="#1a4580" x="71" y="35"><svg xmlns="http://www.w3.org/2000/svg" xmlns:xlink="http://www.w3.org/1999/xlink" width="5" height="4"><path paint-order="stroke fill markers" fill-rule="evenodd" d="M3.607 2.69a1.482 1.482 0 0 1-1.093.451 1.454 1.454 0 0 1-1.093-.448 1.543 1.543 0 1 1 2.186 0V2.69zm-1.093.06c.296.01.582-.11.78-.33.204-.221.313-.513.305-.814a1.139 1.139 0 0 0-.312-.812 1.02 1.02 0 0 0-.78-.335.998.998 0 0 0-.781.332 1.164 1.164 0 0 0-.3.815c-.008.301.105.593.312.81.2.22.485.34.78.333h-.004z"/></svg></svg><svg width="4" height="4" xmlns="http://www.w3.org/2000/svg" xmlns:xlink="http://www.w3.org/1999/xlink" xmlns:svgjs="http://svgjs.com/svgjs" fill="#1a4580" x="75" y="35"><svg xmlns="http://www.w3.org/2000/svg" xmlns:xlink="http://www.w3.org/1999/xlink" width="4" height="4"><path paint-order="stroke fill markers" fill-rule="evenodd" d="M.839 3.074V.136h.439v.512c.2-.366.589-.587 1.005-.573.308-.017.608.1.824.32.21.234.317.542.301.855v1.825H2.97V1.358a.937.937 0 0 0-.21-.652.771.771 0 0 0-.6-.236.848.848 0 0 0-.634.256.917.917 0 0 0-.252.665v1.683H.84z"/></svg></svg><svg width="1" height="6" xmlns="http://www.w3.org/2000/svg" xmlns:xlink="http://www.w3.org/1999/xlink" xmlns:svgjs="http://svgjs.com/svgjs" fill="#1a4580" x="79" y="33"><svg xmlns="http://www.w3.org/2000/svg" xmlns:xlink="http://www.w3.org/1999/xlink" width="1" height="6"><path paint-order="stroke fill markers" fill-rule="evenodd" d="M.38 5.074V.923h.438v4.15H.38z"/></svg></svg><svg width="2" height="5" xmlns="http://www.w3.org/2000/svg" xmlns:xlink="http://www.w3.org/1999/xlink" xmlns:svgjs="http://svgjs.com/svgjs" fill="#1a4580" x="80" y="34"><svg xmlns="http://www.w3.org/2000/svg" xmlns:xlink="http://www.w3.org/1999/xlink" width="2" height="5"><path paint-order="stroke fill markers" fill-rule="evenodd" d="M.852.49V.009h.501v.483H.852zm.03 3.584V1.136h.438v2.94l-.439-.002z"/></svg></svg><svg width="3" height="4" xmlns="http://www.w3.org/2000/svg" xmlns:xlink="http://www.w3.org/1999/xlink" xmlns:svgjs="http://svgjs.com/svgjs" fill="#1a4580" x="82" y="35"><svg xmlns="http://www.w3.org/2000/svg" xmlns:xlink="http://www.w3.org/1999/xlink" width="3" height="4"><path paint-order="stroke fill markers" fill-rule="evenodd" d="M.33 3.074V.136h.438v.512c.2-.366.59-.587 1.006-.573.308-.017.609.1.825.32.208.235.316.542.301.855v1.825h-.439V1.358a.937.937 0 0 0-.21-.652.772.772 0 0 0-.6-.236.851.851 0 0 0-.624.256.915.915 0 0 0-.252.665v1.683H.33z"/></svg></svg><svg width="4" height="4" xmlns="http://www.w3.org/2000/svg" xmlns:xlink="http://www.w3.org/1999/xlink" xmlns:svgjs="http://svgjs.com/svgjs" fill="#1a4580" x="85" y="35"><svg xmlns="http://www.w3.org/2000/svg" width="4" height="4"><path paint-order="stroke fill markers" fill-rule="evenodd" d="M1.093 1.784c.018.273.14.528.339.714a1 1 0 0 0 .696.264c.354 0 .69-.151.927-.414l.274.243a1.561 1.561 0 0 1-1.212.552 1.405 1.405 0 0 1-1.043-.43 1.508 1.508 0 0 1-.423-1.105A1.561 1.561 0 0 1 1.055.515c.253-.29.621-.452 1.006-.445a1.24 1.24 0 0 1 1 .443c.253.315.384.71.37 1.114.004.052.004.104 0 .156l-2.338.001zm0-.353h1.892a1.234 1.234 0 0 0-.281-.704.827.827 0 0 0-.657-.282.857.857 0 0 0-.642.282c-.18.193-.29.441-.312.704z"/></svg></svg></svg></svg></svg>